<?xml version="1.0" standalone="no"?><!DOCTYPE svg PUBLIC "-//W3C//DTD SVG 1.1//EN" "http://www.w3.org/Graphics/SVG/1.1/DTD/svg11.dtd"><svg t="1709540556477" class="icon" viewBox="0 0 1024 1024" version="1.1" xmlns="http://www.w3.org/2000/svg" p-id="50573" xmlns:xlink="http://www.w3.org/1999/xlink" width="200" height="200"><path d="M511.166 2.522C231.386 2.522 2.522 232.356 2.522 513.26c0 280.956 228.864 510.736 508.644 510.736 46.577 0 84.727-38.249 84.727-85.084 0-21.35-8.42-42.595-21.19-55.368-12.669-17.005-21.194-34.063-21.194-55.413 0-46.731 38.204-85.09 84.783-85.09h101.79C896.828 743.04 1024 615.36 1024 457.947 1019.76 206.817 790.898 2.522 511.166 2.522zM201.758 513.26c-46.628 0-84.73-38.254-84.73-85.14 0-46.835 38.102-85.14 84.73-85.14 46.632 0 84.782 38.305 84.782 85.14-0.05 46.886-38.156 85.14-84.782 85.14z m169.516-225.544c-46.58 0-84.778-38.353-84.778-85.19 0-46.782 38.2-85.14 84.778-85.14 46.632 0 84.782 38.304 84.782 85.14 0 46.833-38.156 85.19-84.782 85.19z m279.731 0c-46.683 0-84.784-38.353-84.784-85.19 0-46.782 38.101-85.14 84.784-85.14 46.628 0 84.73 38.304 84.73 85.14 0 46.833-38.102 85.19-84.73 85.19zM820.57 513.26c-46.632 0-84.782-38.254-84.782-85.14 0-46.835 38.148-85.14 84.782-85.14 46.678 0 84.778 38.305 84.778 85.14 0.001 46.886-38.1 85.14-84.778 85.14z" fill="#000000" p-id="50574"></path></svg>