<?xml version="1.0" standalone="no"?><!DOCTYPE svg PUBLIC "-//W3C//DTD SVG 1.1//EN" "http://www.w3.org/Graphics/SVG/1.1/DTD/svg11.dtd"><svg t="1709540471101" class="icon" viewBox="0 0 1024 1024" version="1.1" xmlns="http://www.w3.org/2000/svg" p-id="43285" xmlns:xlink="http://www.w3.org/1999/xlink" width="200" height="200"><path d="M202.666667 106.666667A32 32 0 0 0 192 168.96v16.853333a94.08 94.08 0 0 1-15.786667 52.181334A160.042667 160.042667 0 0 0 149.333333 326.741333V394.666667c0 11.242667 2.346667 21.930667 5.973334 32H117.333333a32 32 0 1 0 0 64h789.333334a32 32 0 1 0 0-64h-208.64c3.626667-10.069333 5.973333-20.757333 5.973333-32v-67.925334c0-31.573333-9.386667-62.442667-26.88-88.704v-0.042666A94.101333 94.101333 0 0 1 661.333333 185.834667V168.96A32 32 0 0 0 650.666667 106.666667h-149.333334a32 32 0 0 0-10.666666 62.293333v16.853333a94.08 94.08 0 0 1-15.786667 52.181334 160.085333 160.085333 0 0 0-26.88 88.746666V394.666667c0 11.242667 2.346667 21.930667 5.973333 32h-54.613333c3.626667-10.069333 5.973333-20.757333 5.973333-32v-67.925334c0-31.573333-9.386667-62.442667-26.88-88.704v-0.042666A94.101333 94.101333 0 0 1 362.666667 185.834667V168.96A32 32 0 0 0 352 106.666667h-149.333333zM256 170.666667h42.666667v15.146666c0 31.232 9.237333 61.717333 26.538666 87.68a32 32 0 0 0 0 0.042667c10.517333 15.765333 16.128 34.261333 16.128 53.205333V394.666667c0 18.048-13.952 32-32 32h-64c-18.048 0-32-13.952-32-32v-67.925334c0-18.944 5.610667-37.461333 16.128-53.248A157.994667 157.994667 0 0 0 256 185.813333V170.666667z m298.666667 0h42.666666v15.146666c0 31.232 9.237333 61.717333 26.538667 87.68a32 32 0 0 0 0 0.042667c10.517333 15.765333 16.128 34.261333 16.128 53.205333V394.666667c0 18.048-13.952 32-32 32h-64c-18.048 0-32-13.952-32-32v-67.925334c0-18.922667 5.610667-37.461333 16.128-53.248A157.994667 157.994667 0 0 0 554.666667 185.813333V170.666667z m-32 384c-52.650667 0-96 43.349333-96 96v21.333333c0 11.306667 2.88 21.888 6.549333 32H394.666667c-52.650667 0-96 43.349333-96 96v21.333333c0 11.242667 2.346667 21.930667 5.973333 32H117.333333a32 32 0 1 0 0 64h789.333334a32 32 0 1 0 0-64h-37.973334c3.626667-10.069333 5.973333-20.757333 5.973334-32v-21.333333c0-52.650667-43.349333-96-96-96h-37.973334c3.626667-10.069333 5.973333-20.757333 5.973334-32v-21.333333c0-52.650667-43.349333-96-96-96h-128z m0 64h128c18.048 0 32 13.952 32 32v21.333333c0 18.048-13.952 32-32 32h-128c-18.048 0-32-13.952-32-32v-21.333333c0-18.048 13.952-32 32-32z m-128 149.333333h128c18.048 0 32 13.952 32 32v21.333333c0 18.048-13.952 32-32 32h-128c-18.048 0-32-13.952-32-32v-21.333333c0-2.261333 0.213333-4.437333 0.64-6.549333A31.445333 31.445333 0 0 1 394.666667 768z m256 0h128c18.048 0 32 13.952 32 32v21.333333c0 18.048-13.952 32-32 32h-128c-18.048 0-32-13.952-32-32v-21.333333c0-18.048 13.952-32 32-32z" p-id="43286" fill="#000000"></path></svg>