<?xml version="1.0" standalone="no"?><!DOCTYPE svg PUBLIC "-//W3C//DTD SVG 1.1//EN" "http://www.w3.org/Graphics/SVG/1.1/DTD/svg11.dtd"><svg t="1709539470643" class="icon" viewBox="0 0 1024 1024" version="1.1" xmlns="http://www.w3.org/2000/svg" p-id="6742" xmlns:xlink="http://www.w3.org/1999/xlink" width="200" height="200"><path d="M832.533333 708.16V626.133333c0-67.84-26.666667-109.226667-49.066666-132.053333-29.226667-29.653333-68.48-45.973333-110.613334-45.973333-79.573333 0-160.213333 61.12-160.213333 178.026666v157.866667c0 36.053333-10.56 65.706667-30.506667 85.76-49.706667 50.133333-160.426667 32.213333-160.426666-85.866667l-0.426667-183.146666c17.28-8.96 29.973333-25.6 33.493333-45.44 68.906667-19.413333 117.653333-69.333333 125.866667-134.293334l31.68-259.84c1.173333-9.066667-1.706667-18.24-7.786667-25.066666-6.08-6.826667-14.826667-10.773333-24-10.773334h-64.96c-8.64-8.213333-20.266667-13.333333-33.173333-13.333333-26.56 0-48 21.44-48 48s21.44 48 48 48c15.466667 0 29.226667-7.36 37.973333-18.666667h24L417.066667 413.226667c-5.653333 44.906667-41.813333 71.253333-84.266667 81.813333-11.093333-9.28-25.493333-14.933333-41.066667-14.933333-16.32 0-31.146667 6.08-42.453333 16.106666-44.586667-9.706667-85.12-36.48-90.88-82.56l-25.92-223.146666h24c8.853333 10.773333 22.186667 17.6 37.12 17.6 26.56 0 48-21.44 48-48s-21.44-48-48-48c-13.44 0-25.6 5.546667-34.24 14.4H96.533333c-9.173333 0-17.813333 3.946667-23.893333 10.666666-6.08 6.826667-8.96 15.893333-7.893333 24.96L94.933333 421.12c9.386667 75.626667 68.8 119.68 134.186667 135.893333 3.52 17.066667 13.866667 31.68 28.16 40.853334l0.426667 186.133333c0 115.84 80.32 176.426667 159.68 176.426667 41.92 0 81.066667-16.213333 110.186666-45.546667 22.293333-22.506667 48.96-63.573333 48.96-130.88V626.133333c0-119.68 111.253333-137.92 161.28-87.146666 20.053333 20.373333 30.72 50.453333 30.72 87.146666v81.813334C713.066667 721.92 672 772.266667 672 832c0 70.613333 57.386667 128 128 128s128-57.386667 128-128c0-59.306667-40.533333-109.333333-95.466667-123.84zM800 896c-35.306667 0-64-28.693333-64-64s28.693333-64 64-64 64 28.693333 64 64-28.693333 64-64 64z" p-id="6743"></path></svg>