<?xml version="1.0" standalone="no"?><!DOCTYPE svg PUBLIC "-//W3C//DTD SVG 1.1//EN" "http://www.w3.org/Graphics/SVG/1.1/DTD/svg11.dtd"><svg t="1709539509229" class="icon" viewBox="0 0 1024 1024" version="1.1" xmlns="http://www.w3.org/2000/svg" p-id="7732" xmlns:xlink="http://www.w3.org/1999/xlink" width="200" height="200"><path d="M611.595834 302.043151c0-48.387034-38.85289-87.608314-86.779436-87.608314-47.925522 0-86.812181 39.22128-86.812181 87.608314 0 48.387034 38.886659 87.584778 86.812181 87.584778C572.742944 389.627928 611.595834 350.430184 611.595834 302.043151z" p-id="7733"></path><path d="M693.468516 872.414583c-10.754948-52.578496-66.418712-77.175707-109.912295-100.252285-7.196912-3.845585-14.474666-7.461949-21.786189-11.054777l-0.818645-66.856687c37.355793-57.944713 114.76072-184.749748 114.76072-184.749748 0.195451-0.36839 0.252757-0.782829 0.12689-1.197268-0.12689-0.391926-0.460488-0.714268-0.818645-0.852414l-41.46539-16.419971-1.484817 0.322341c-0.093121 0.092098-32.715099 33.07121-72.29249 71.785953 0.668219-9.350972 1.013073-18.378579 1.013073-26.761504-0.011256-32.702819-2.902096-70.266343-22.305005-97.717555-16.443507-23.237237-44.402279-39.359426-73.167416-37.332257-47.77612 3.38612-72.511477 39.059598-85.074607 82.564437-21.809725 75.585489-27.798113 155.524123-27.15343 233.966683 0.334621 39.013549 5.699816 82.102926 26.980491 115.727745 11.629875 18.424628 27.64871 34.960233 48.547693 42.35362L270.238282 897.217479l-1.047866 0.691755-32.536021 59.118446c-0.2415 0.391926-0.230244 0.944512 0.034792 1.357927 0.225127 0.414439 0.703011 0.691755 1.186012 0.691755l335.823512-2.418073c44.276413-0.046049 126.667911-12.18246 121.209596-74.157977C694.608479 879.047654 694.136735 875.684046 693.468516 872.414583z" p-id="7734"></path><path d="M718.191594 123.833353c-86.029352-55.364959-170.908508-58.865689-192.764282-58.911738-2.210341 0-3.811816 0.046049-4.744048 0.068562-2.130524-0.046049-4.122901-0.046049-5.964852-0.046049-190.68083-0.598634-294.328445 104.465237-344.909447 206.767204-51.271734 102.346993-54.582129 202.391547-54.731532 203.980741-0.397043 11.123338 8.27957 20.473287 19.426445 20.865213 11.140735 0.391926 20.485567-8.314363 20.87647-19.461237 0 0 0.190335-5.27412 1.243317-15.476483 3.511987-35.673477 17.911952-126.644375 68.883857-206.53696 51.363831-79.754438 135.77022-156.63441 289.210891-157.095921 2.049682-0.022513 3.948939-7.306406 5.7694-7.306406l1.554402 0c0 0 0.840134 7.260357 3.38612 7.260357 17.421788-0.092098 94.815459 6.900154 170.897252 56.116065 75.954903 49.331545 153.060001 145.063887 172.370813 335.916633 1.036609 10.386558 9.81146 19.070334 20.036335 19.070334 0.667196 0 1.346671 0.447185 2.049682 0.355087 11.054777-1.082658 19.137873-10.714016 18.056238-21.813818C889.296577 287.267633 804.382629 179.01514 718.191594 123.833353z" p-id="7735"></path></svg>