<?xml version="1.0" standalone="no"?><!DOCTYPE svg PUBLIC "-//W3C//DTD SVG 1.1//EN" "http://www.w3.org/Graphics/SVG/1.1/DTD/svg11.dtd"><svg t="1709540265835" class="icon" viewBox="0 0 1024 1024" version="1.1" xmlns="http://www.w3.org/2000/svg" p-id="34604" xmlns:xlink="http://www.w3.org/1999/xlink" width="200" height="200"><path d="M914.944 657.92c-18.432-31.744-57.344-41.984-90.624-23.552-36.352 20.48-72.704 41.984-109.056 62.976-2.56 1.536-5.12 5.632-5.632 8.704-8.192 60.928-59.392 105.472-120.832 103.936-13.824-0.512-27.648-3.584-40.96-7.168-33.28-8.192-66.56-17.408-99.84-26.624-11.776-3.072-19.456-10.24-21.504-22.528-1.536-10.24 2.56-18.944 11.264-25.088 8.192-5.632 16.896-5.12 26.112-2.56 35.328 9.728 70.656 19.968 106.496 28.16 11.776 3.072 25.088 3.584 36.864 1.536 29.696-6.144 49.152-31.744 50.176-61.44 0.512-30.208-17.92-56.32-47.616-64.512-58.88-16.384-117.248-31.744-176.128-47.616-36.352-9.728-70.656-4.608-103.424 14.336-70.656 40.96-141.824 81.92-212.48 122.88-18.944 10.752-22.528 24.576-11.776 43.008 33.792 58.368 67.584 116.736 101.376 175.616 5.12 9.216 11.264 17.408 20.992 22.528h13.824c4.096-2.56 8.704-4.608 12.8-7.168 29.184-16.896 57.856-33.792 87.04-50.176 3.072-1.536 7.168-3.072 10.752-3.072 65.536 4.096 131.072 8.192 196.096 12.8 30.208 2.048 59.392-1.536 86.016-17.408 84.992-49.152 169.984-97.792 254.976-147.456 32.768-19.456 43.008-58.368 25.088-90.112zM338.432 483.84h346.112c17.408 0 28.16-11.264 28.16-28.672-0.512-38.4-11.264-73.728-31.744-105.472-14.848-23.552-34.304-43.52-57.344-58.88-64.512 59.392-161.28 58.368-223.744 0-0.512 1.024-1.536 1.024-2.56 2.048-56.32 40.448-84.992 95.744-86.528 165.376-0.512 14.848 11.776 25.6 27.648 25.6zM512.512 282.624c59.904-0.512 108.544-49.664 108.544-109.568 0-60.416-49.664-109.568-110.08-109.056-59.904 0.512-109.056 49.664-108.544 109.568 0.512 60.416 49.664 109.568 110.08 109.056z" p-id="34605"></path></svg>