<?xml version="1.0" standalone="no"?><!DOCTYPE svg PUBLIC "-//W3C//DTD SVG 1.1//EN" "http://www.w3.org/Graphics/SVG/1.1/DTD/svg11.dtd"><svg t="1709540601350" class="icon" viewBox="0 0 1024 1024" version="1.1" xmlns="http://www.w3.org/2000/svg" p-id="52882" xmlns:xlink="http://www.w3.org/1999/xlink" width="200" height="200"><path d="M133.333333 400.96h8.96a400 400 0 0 1 244.213334 82.72 5.333333 5.333333 0 0 0 6.613333 0c15.146667-12.906667 80.373333-68.106667 120.853333-95.413333a5.333333 5.333333 0 0 0 1.866667-6.346667 401.226667 401.226667 0 0 1 10.666667-331.306667 5.333333 5.333333 0 0 0-4.266667-7.946666H512a469.333333 469.333333 0 0 0-456.426667 359.786666 5.333333 5.333333 0 0 0 6.346667 6.453334A402.026667 402.026667 0 0 1 133.333333 400.96zM887.093333 629.92a401.333333 401.333333 0 0 1-330.986666-174.026667 5.333333 5.333333 0 0 0-7.36-1.386666A883.306667 883.306667 0 0 0 448 534.186667a5.333333 5.333333 0 0 0-0.426667 7.36 402.24 402.24 0 0 1 82.773334 364.693333 390.24 390.24 0 0 1-24.64 67.466667 5.333333 5.333333 0 0 0 4.693333 7.626666h1.6a469.333333 469.333333 0 0 0 454.4-351.52 5.333333 5.333333 0 0 0-6.186667-6.506666 400 400 0 0 1-71.52 6.613333z" p-id="52883" fill="#000000"></path><path d="M937.066667 313.013333a5.333333 5.333333 0 0 0-5.333334-3.04q-37.333333 4.746667-73.493333 12.426667a873.493333 873.493333 0 0 0-235.893333 87.2 5.333333 5.333333 0 0 0-1.813334 7.84 326.72 326.72 0 0 0 266.666667 137.813333c5.76 0 11.52 0 17.226667-0.48a317.813333 317.813333 0 0 0 72.373333-12 5.333333 5.333333 0 0 0 3.893333-4.906666c0.48-8.533333 0.746667-17.173333 0.746667-25.866667a466.88 466.88 0 0 0-44.373333-198.986667zM812.48 256.426667c24.32-4.853333 48.586667-10.666667 73.333333-15.146667a5.333333 5.333333 0 0 0 3.413334-8.373333 469.76 469.76 0 0 0-274.453334-178.933334l-5.866666 2.453334A330.666667 330.666667 0 0 0 577.493333 122.666667a326.826667 326.826667 0 0 0 2.506667 217.76 5.333333 5.333333 0 0 0 7.733333 2.72 740.426667 740.426667 0 0 1 224.746667-86.72zM142.186667 475.52c-7.84 0-15.573333 0-23.253334 0.853333a322.08 322.08 0 0 0-72.106666 13.386667 5.333333 5.333333 0 0 0-3.84 4.96Q42.666667 503.36 42.666667 512a467.04 467.04 0 0 0 109.76 301.44 5.333333 5.333333 0 0 0 8.96-1.386667q14.72-34.4 32-67.52a960 960 0 0 1 139.413333-200.213333 5.333333 5.333333 0 0 0-0.8-7.893333 324.533333 324.533333 0 0 0-189.813333-60.906667zM246.773333 804q-16 33.6-29.44 68.373333a5.333333 5.333333 0 0 0 1.653334 6.133334 467.52 467.52 0 0 0 198.773333 93.333333 5.333333 5.333333 0 0 0 5.76-2.506667 326.613333 326.613333 0 0 0-28.266667-373.653333 5.333333 5.333333 0 0 0-8.16 0 881.92 881.92 0 0 0-140.32 208.32z" p-id="52884" fill="#000000"></path></svg>