<?xml version="1.0" standalone="no"?><!DOCTYPE svg PUBLIC "-//W3C//DTD SVG 1.1//EN" "http://www.w3.org/Graphics/SVG/1.1/DTD/svg11.dtd"><svg t="1709540580285" class="icon" viewBox="0 0 1024 1024" version="1.1" xmlns="http://www.w3.org/2000/svg" p-id="51717" xmlns:xlink="http://www.w3.org/1999/xlink" width="200" height="200"><path d="M326.157838 636.042378c0-24.908108 20.756757-45.664865 45.664865-45.664864 24.908108 0 45.664865 20.756757 45.664865 45.664864 0 24.908108-20.756757 45.664865-45.664865 45.664865-24.908108 0-45.664865-20.756757-45.664865-45.664865z m0-273.989189h365.318919v149.448649h-365.318919v-149.448649z m319.654054 228.324325c12.454054 0 24.908108 4.151351 33.210811 12.454054 8.302703 8.302703 12.454054 20.756757 12.454054 33.21081 0 24.908108-20.756757 45.664865-45.664865 45.664865-24.908108 0-45.664865-20.756757-45.664865-45.664865 0-24.908108 20.756757-45.664865 45.664865-45.664864z m-136.994595-564.583784c273.989189 0 498.162162 224.172973 498.162162 498.162162s-224.172973 498.162162-498.162162 498.162162-498.162162-224.172973-498.162162-498.162162 224.172973-498.162162 498.162162-498.162162z m249.081081 631.005405v-282.291892c0-103.783784-116.237838-116.237838-249.081081-116.237838s-249.081081 12.454054-249.081081 116.237838v282.291892c0 29.059459 20.756757 33.210811 37.362162 49.816216v53.967568c0 16.605405 12.454054 29.059459 29.05946 29.059459h33.210811c8.302703 0 16.605405-4.151351 20.756756-8.302702 4.151351-4.151351 8.302703-12.454054 8.302703-20.756757v-29.05946h244.92973v29.05946c0 16.605405 12.454054 29.059459 29.059459 29.059459h29.05946c8.302703 0 16.605405-4.151351 20.756757-8.302702 4.151351-4.151351 8.302703-12.454054 8.302702-20.756757v-53.967568c16.605405-16.605405 37.362162-24.908108 37.362162-49.816216z" fill="#000000" p-id="51718"></path></svg>